{"glyphs":{":":{"x_min":0,"x_max":283,"ha":283,"o":"m 162 166 l 168 147 q 191 84 244 54 l 142 -14 q 137 -16 126 -16 q 94 -16 74 12 q 55 39 55 61 q 55 87 88 113 l 122 138 l 125 140 z m 162 505 l 168 485 q 191 422 244 392 l 142 324 q 137 322 126 322 q 94 322 74 350 q 55 377 55 399 q 55 425 88 451 l 122 476 l 125 478 z"},"$":{"x_min":0,"x_max":650,"ha":650,"o":"m 57 135 l 182 207 l 192 184 q 225 118 292 101 l 292 312 l 146 357 l 129 364 q 53 403 53 471 q 53 498 65 531 q 73 552 87 572 q 101 592 122 612 q 144 632 161 645 q 178 658 189 663 l 286 712 l 285 785 l 302 796 l 320 807 l 344 822 l 369 837 q 365 815 363 786 q 361 758 361 731 q 387 735 398 736 q 408 736 414 736 q 443 736 472 730 q 500 724 517 718 q 534 711 547 702 q 577 682 577 660 q 577 642 556 627 q 550 623 539 617 q 514 604 494 594 l 471 583 l 441 570 q 412 613 367 637 q 358 581 358 527 q 358 512 358 499 q 359 486 363 446 l 511 398 l 533 389 q 611 349 611 278 q 611 234 580 184 q 560 152 515 115 l 500 102 l 494 97 q 466 73 434 53 q 402 33 372 20 l 371 1 l 371 -18 l 373 -75 q 325 -96 287 -129 l 292 -9 q 262 -14 240 -14 q 200 -14 150 0 l 122 10 q 94 21 80 28 q 67 36 56 46 q 46 57 40 70 q 34 83 34 95 q 34 121 57 135 z m 269 482 l 291 475 l 286 646 q 268 646 252 637 q 244 633 235 624 q 209 598 209 564 q 209 509 269 482 z m 364 184 l 364 140 l 365 97 l 386 103 q 451 130 451 184 q 451 193 449 211 q 447 229 411 262 q 389 281 360 285 l 362 235 z"},"?":{"x_min":0,"x_max":515,"ha":515,"o":"m 22 617 l 135 707 q 178 741 238 741 q 248 741 262 740 q 276 738 284 737 q 320 731 338 724 q 357 718 381 701 q 429 668 454 634 q 478 599 484 556 q 486 547 486 539 q 486 531 486 523 q 486 473 450 416 q 432 386 396 350 q 361 315 299 266 l 241 223 l 227 215 l 213 205 l 189 233 q 232 266 267 308 l 291 339 q 329 393 329 452 q 329 506 296 548 q 264 591 205 609 q 178 617 150 617 q 125 617 83 609 q 56 604 35 596 z m 226 166 l 232 147 q 255 85 309 54 l 206 -14 q 201 -16 190 -16 q 158 -16 138 12 q 119 39 119 61 q 119 87 152 113 l 186 138 l 189 140 z"},"a":{"x_min":0,"x_max":597,"ha":597,"o":"m 298 291 l 286 311 q 229 398 178 398 q 161 398 142 387 l 134 399 l 204 457 q 266 508 291 508 q 322 508 399 408 q 414 389 438 354 q 461 318 486 278 q 502 251 524 210 q 547 168 584 96 l 597 71 l 473 -15 q 469 -1 462 15 q 455 31 451 40 q 419 107 389 140 q 359 173 312 195 q 297 202 278 207 q 260 212 238 214 q 217 217 208 217 q 193 217 176 214 q 158 211 148 200 q 137 188 137 173 q 137 169 139 161 q 147 140 175 120 q 203 101 242 96 q 258 94 267 94 q 308 94 341 110 l 354 96 l 352 94 l 303 48 q 265 12 238 -2 q 211 -17 180 -17 q 174 -17 167 -16 q 160 -15 156 -15 q 91 -8 56 20 q 22 49 22 88 q 22 113 36 139 q 51 165 77 191 q 103 217 140 239 q 177 261 228 275 l 242 278 l 262 283 z"},"L":{"x_min":0,"x_max":567,"ha":567,"o":"m 14 610 l 39 633 q 86 676 118 698 q 150 720 178 730 q 187 733 195 733 q 227 733 232 694 q 238 656 239 578 q 240 500 240 308 l 240 298 l 245 120 q 268 120 279 120 q 367 120 404 122 q 442 123 530 131 l 596 137 l 556 98 q 510 53 460 -5 l 138 -5 l 100 -8 l 101 49 l 101 103 l 101 160 l 101 250 q 101 298 100 338 q 98 377 97 418 q 97 474 93 505 q 88 529 86 539 q 75 604 54 604 q 48 604 43 602 q 41 601 29 594 l 24 591 z"},"3":{"x_min":0,"x_max":544,"ha":544,"o":"m 96 495 l 208 581 q 219 589 235 594 q 251 598 272 598 q 277 598 283 598 q 291 596 301 595 q 311 594 323 589 q 357 577 376 551 q 396 525 396 493 q 396 457 370 423 q 351 399 320 373 l 303 360 l 329 350 q 430 302 430 214 q 430 191 424 165 q 418 139 403 116 q 388 93 356 63 q 334 42 288 13 q 243 -16 203 -38 l 172 -55 l 152 -31 l 187 -9 q 229 21 251 45 q 273 69 284 94 q 294 119 294 145 q 294 226 204 260 q 194 264 184 266 q 174 268 161 268 q 153 268 139 266 l 132 288 l 190 320 q 218 336 238 359 q 259 382 259 414 q 259 438 247 457 q 235 476 214 484 q 194 493 171 493 q 149 493 131 486 l 113 478 z"},";":{"x_min":0,"x_max":290,"ha":290,"o":"m 162 505 l 168 485 q 191 422 244 392 l 142 324 q 137 322 126 322 q 94 322 74 350 q 55 377 55 399 q 55 425 88 451 l 122 476 l 125 478 z m 58 92 l 72 104 q 113 139 165 166 l 197 144 q 252 99 252 64 q 252 51 245 38 q 238 25 224 11 l 208 -2 l 202 -6 l 172 -24 l 159 -32 l 103 -69 l 86 -51 l 97 -40 q 111 -24 118 -12 q 125 1 125 13 q 125 40 76 80 z"},"J":{"x_min":0,"x_max":323,"ha":323,"o":"m 7 632 q 82 672 112 692 l 182 738 q 197 747 210 747 q 237 747 242 724 q 246 701 246 667 q 246 642 246 620 q 245 598 245 578 q 245 567 245 561 q 245 513 244 389 q 243 265 243 206 l 246 132 l 248 56 l 251 -55 l 232 -71 l 224 -78 l 119 -164 q 104 -176 96 -184 q 83 -196 51 -229 l 37 -203 q 55 -185 64 -168 q 74 -150 89 -103 q 98 -76 104 -20 q 109 35 109 146 l 106 302 q 106 434 100 497 q 93 560 84 591 q 75 622 57 622 q 47 622 38 618 l 26 613 l 23 612 z"},"V":{"x_min":0,"x_max":774,"ha":774,"o":"m -29 627 l 102 715 q 122 729 136 729 q 156 729 178 701 q 197 677 238 602 l 331 421 l 383 314 l 412 255 l 434 209 l 447 237 l 456 256 l 499 358 q 542 460 556 516 q 570 572 570 628 l 601 644 l 632 660 q 665 677 720 705 q 746 718 810 749 l 789 713 l 773 686 l 742 630 q 667 492 608 378 q 555 275 529 216 l 508 166 q 487 116 487 96 q 487 81 497 58 l 470 45 l 443 32 q 414 18 395 7 q 383 0 347 -21 l 334 15 l 323 44 l 257 195 l 173 372 q 131 462 93 527 q 64 577 49 592 q 34 607 24 612 q 14 618 6 617 l -19 604 z"},"7":{"x_min":0,"x_max":543,"ha":543,"o":"m 62 490 l 85 512 l 109 534 l 186 605 q 208 584 243 576 q 278 569 352 569 q 402 569 456 581 l 480 556 q 473 548 461 531 q 449 514 445 507 l 442 501 l 400 417 l 327 270 q 323 261 309 227 q 295 193 289 176 q 279 142 276 110 q 274 79 274 66 l 192 22 l 116 -19 l 300 360 l 337 435 q 309 435 281 434 q 253 434 226 434 l 208 435 l 176 438 q 138 438 116 448 q 94 457 72 479 z"},"S":{"x_min":0,"x_max":635,"ha":635,"o":"m 178 199 q 190 157 222 131 q 278 84 319 84 q 330 83 336 83 q 388 83 420 110 q 453 138 453 179 q 453 187 453 195 q 450 203 449 206 q 440 238 418 256 q 397 275 343 295 l 321 302 l 137 353 q 125 357 113 364 q 101 370 83 384 q 42 417 42 470 q 42 515 75 562 q 112 615 183 659 q 214 678 248 691 q 295 710 338 719 q 381 728 415 728 q 485 728 532 696 q 559 678 559 654 q 559 641 549 634 l 514 613 l 431 567 l 418 585 q 367 646 304 646 q 298 646 293 646 q 285 644 281 644 q 249 638 230 624 q 210 611 202 590 q 193 568 193 553 q 193 523 220 498 q 247 473 305 451 l 313 449 l 472 406 q 538 388 572 354 q 605 321 605 276 q 605 243 589 210 q 579 189 556 162 q 529 130 489 94 q 466 72 437 54 q 366 9 299 -6 q 249 -17 211 -17 q 165 -17 128 -4 q 92 8 66 31 q 32 60 32 80 q 32 99 58 120 q 83 142 145 180 z"},"Z":{"x_min":0,"x_max":616,"ha":616,"o":"m 386 558 l 339 556 l 290 554 l 230 553 l 166 553 q 154 553 149 553 q 118 553 110 554 q 103 555 79 561 q 41 571 41 601 q 41 623 63 652 l 77 670 l 168 769 l 190 760 q 188 755 188 747 q 188 717 232 717 l 312 714 q 401 714 434 716 q 468 718 552 726 l 572 726 q 579 726 583 720 q 587 713 585 705 q 583 698 575 688 q 567 679 533 643 l 468 563 q 413 495 368 435 q 334 390 308 353 q 278 310 264 288 q 251 267 245 255 q 229 222 229 200 q 229 164 296 151 q 309 149 324 148 q 339 147 368 147 q 416 147 436 148 q 457 150 502 155 q 548 160 600 173 q 535 86 465 1 q 405 -5 362 -5 q 237 -5 172 2 q 108 8 81 21 q 31 45 31 83 q 31 101 42 130 q 53 158 88 205 q 131 262 223 366 l 312 469 l 347 510 z"},"x":{"x_min":0,"x_max":575,"ha":575,"o":"m 14 416 l 161 497 q 175 504 182 504 q 201 504 228 464 l 332 310 l 345 318 q 400 361 400 384 q 400 406 353 432 q 346 437 334 440 l 439 514 l 456 507 q 479 499 489 492 q 540 464 540 443 q 540 430 523 416 l 487 386 l 412 327 l 355 280 l 433 173 q 465 125 478 113 q 491 101 506 99 q 520 97 523 97 q 526 97 527 97 q 539 97 554 102 l 561 81 q 525 62 469 22 l 444 2 q 439 -2 434 -3 q 433 -3 419 -5 q 402 -7 393 -1 q 384 5 363 34 l 310 107 l 291 133 l 248 194 q 239 189 228 182 q 218 175 204 162 q 189 150 180 136 q 175 129 175 121 q 175 107 188 94 q 202 80 230 70 l 251 67 l 145 -17 l 107 -8 q 69 -1 41 18 q 23 30 23 47 q 23 62 42 79 l 140 154 l 154 164 l 229 223 l 180 294 q 130 366 112 380 q 95 394 57 394 l 29 394 z"},")":{"x_min":0,"x_max":307,"ha":307,"o":"m 0 710 l 61 758 l 113 807 q 143 770 162 733 q 181 696 202 635 l 214 596 q 232 533 239 469 q 243 432 246 396 q 249 361 249 336 q 249 304 246 277 q 243 250 233 197 q 231 182 226 160 q 220 137 215 120 q 199 67 185 30 q 171 -6 160 -28 l 154 -40 l 145 -57 l 8 -122 q 25 -92 42 -56 q 56 -26 70 10 q 101 91 113 153 q 125 215 125 284 q 125 370 106 454 q 88 538 68 586 q 49 633 12 691 z"},"&":{"x_min":0,"x_max":798,"ha":798,"o":"m 170 324 l 153 332 q 119 350 101 364 q 83 379 73 395 q 51 431 51 463 q 51 507 88 550 q 126 594 206 639 q 221 647 234 654 q 248 660 269 668 q 334 689 379 689 q 395 689 421 686 q 447 684 475 673 q 503 662 512 648 q 521 633 521 625 q 521 610 480 584 l 404 535 q 398 546 391 556 q 384 565 375 572 q 349 597 316 607 q 295 613 275 613 q 259 613 247 609 q 181 593 181 530 q 181 504 196 476 q 212 447 266 431 q 280 428 314 426 q 347 424 411 424 l 489 425 l 491 456 l 631 540 l 626 431 l 834 438 l 808 411 l 781 384 l 747 350 l 714 315 l 624 314 l 625 292 q 625 233 596 190 q 568 146 469 58 q 387 -17 305 -17 q 261 -17 199 1 q 172 8 146 22 q 105 43 85 62 q 65 81 54 108 q 42 134 42 159 q 42 232 157 314 z m 185 225 q 185 189 215 160 q 245 130 310 111 q 322 107 334 105 q 347 103 364 103 q 372 103 380 103 q 393 105 399 105 q 443 110 460 123 q 477 136 482 168 l 483 183 l 484 314 l 482 318 l 364 318 q 256 318 220 298 q 185 278 185 225 z"},"_":{"x_min":0,"x_max":562,"ha":562,"o":"m -7 0 l -7 36 l 569 36 l 569 0 z"},"v":{"x_min":0,"x_max":571,"ha":571,"o":"m -29 423 l 112 492 q 120 496 129 496 q 147 496 172 468 q 196 440 233 375 l 255 335 q 280 287 294 258 q 308 228 316 207 l 317 203 l 330 164 l 331 159 l 337 144 l 390 218 l 419 268 q 438 309 438 328 q 438 358 382 384 l 346 396 l 326 400 q 356 422 383 442 q 402 456 412 465 q 450 497 479 497 q 508 497 553 465 q 568 454 576 444 q 585 434 585 423 q 585 393 453 226 l 276 -19 l 246 -21 q 208 78 170 156 q 133 234 103 288 q 79 332 64 351 q 42 380 24 391 q 6 402 -17 402 z"},"O":{"x_min":0,"x_max":749,"ha":749,"o":"m 210 544 l 230 529 q 185 470 185 389 q 185 358 192 326 q 199 294 214 261 q 220 249 228 235 q 236 221 246 206 q 266 178 286 158 q 305 138 325 124 q 375 89 424 89 q 511 89 546 177 q 564 222 564 288 q 564 314 559 352 q 554 390 545 418 q 536 445 520 475 q 491 526 456 560 q 420 595 379 611 q 354 620 339 624 q 324 627 303 627 q 277 627 254 623 q 231 619 217 617 l 200 614 l 187 634 l 228 658 q 240 665 260 676 q 281 686 295 693 q 336 713 362 721 q 389 729 417 729 q 445 729 477 722 q 498 718 522 708 q 546 699 569 685 q 636 645 672 585 q 708 525 716 438 q 717 426 718 417 q 718 408 718 402 q 718 282 626 167 l 598 134 q 565 100 534 77 q 462 23 413 4 q 364 -16 305 -16 q 178 -16 96 92 q 88 102 86 105 q 81 111 77 120 q 50 165 42 212 q 33 260 33 290 q 33 338 64 399 q 81 433 112 466 q 144 499 195 535 z"},"(":{"x_min":0,"x_max":307,"ha":307,"o":"m 162 742 l 298 807 q 282 779 265 742 q 248 705 237 675 q 206 594 194 532 q 182 470 182 401 q 182 310 202 223 q 219 146 238 100 q 256 54 294 -6 l 307 -25 l 246 -73 l 193 -122 q 167 -89 146 -48 q 125 -8 105 51 l 93 90 q 73 161 68 206 q 64 251 61 288 q 58 326 58 351 q 58 407 73 488 q 81 532 92 565 q 105 610 122 655 q 136 693 146 714 l 153 726 z"},"C":{"x_min":0,"x_max":615,"ha":615,"o":"m 459 568 q 449 584 434 595 q 420 606 393 618 q 351 635 317 635 q 259 635 220 594 q 180 554 172 481 q 171 472 171 455 q 171 432 174 404 q 178 376 191 337 q 218 257 266 208 q 314 158 390 130 q 443 112 497 112 q 540 112 579 122 l 588 108 l 555 82 q 503 41 474 24 q 445 6 408 -9 q 387 -12 364 -12 q 357 -12 349 -11 q 341 -10 337 -10 q 260 -3 193 41 q 126 85 80 161 q 47 217 35 273 q 31 294 29 312 q 27 329 27 349 q 27 429 76 513 q 88 533 92 540 q 96 546 110 563 q 145 608 207 649 q 269 690 333 711 q 397 732 453 732 q 501 732 525 724 q 549 717 570 698 q 580 689 580 677 q 580 664 568 653 q 556 642 530 621 q 509 604 488 588 z"},"W":{"x_min":0,"x_max":1272,"ha":1272,"o":"m -29 649 l 94 733 q 102 739 109 739 q 124 739 146 710 q 167 680 214 595 l 257 515 l 319 393 l 405 212 l 438 280 q 482 375 510 455 q 534 522 540 556 l 542 569 l 545 593 l 547 617 l 548 629 l 692 714 l 731 644 q 833 458 878 356 l 890 329 l 925 245 l 927 240 l 938 216 l 976 293 q 1030 412 1051 478 q 1072 544 1078 607 l 1079 625 l 1080 641 l 1308 756 l 1235 626 q 1199 561 1171 508 q 1151 471 1115 399 q 1069 307 1050 266 q 1030 225 1017 192 l 1015 188 l 1002 154 l 989 118 l 988 114 q 985 102 985 87 q 985 77 986 72 l 969 60 l 952 49 q 937 38 916 24 q 894 9 855 -14 l 851 -8 l 849 -6 l 809 102 q 796 136 771 191 q 740 258 687 359 l 627 469 l 608 437 l 591 403 l 580 381 l 539 303 l 506 236 q 469 159 458 130 q 447 100 447 77 q 447 71 449 57 l 428 44 l 406 32 l 318 -17 l 304 20 l 281 81 l 269 111 l 266 118 l 264 123 l 249 155 l 234 192 q 207 255 179 312 q 151 370 95 475 l 56 546 l 52 553 l 31 589 q 10 625 -14 625 q -19 625 -27 623 z"},"A":{"x_min":0,"x_max":748,"ha":748,"o":"m -22 -13 q -13 0 6 30 q 22 56 33 75 q 53 111 68 144 q 84 176 129 280 q 166 366 177 393 q 207 463 213 480 l 261 624 l 265 634 l 279 676 l 405 739 q 414 742 429 736 q 437 733 441 724 q 445 714 456 670 q 461 649 474 616 q 486 583 515 510 l 535 461 q 568 382 593 329 q 615 281 636 246 q 691 147 713 123 q 735 99 769 99 l 777 79 l 696 21 q 656 -8 632 -8 q 609 -8 588 17 q 566 42 526 109 l 500 154 l 490 174 l 487 179 q 445 179 351 178 q 257 177 224 177 l 220 177 l 188 178 l 183 161 l 178 140 q 174 124 169 104 q 164 83 164 62 l 117 41 q 47 9 28 2 q 9 -6 -22 -13 z m 421 323 l 400 372 l 331 538 l 311 491 l 291 443 l 224 274 q 242 274 251 274 q 267 274 275 274 q 289 274 296 274 q 308 274 314 274 q 325 274 330 274 q 339 274 344 274 q 352 274 356 274 q 374 274 393 274 q 412 274 431 275 q 438 275 442 275 z"},"f":{"x_min":0,"x_max":357,"ha":357,"o":"m -36 392 l -28 419 l -20 445 l -12 471 l -5 498 l 23 496 l 52 494 l 76 492 l 101 490 l 101 534 q 106 588 122 618 q 139 648 194 705 q 222 733 254 756 q 285 780 306 791 q 326 802 343 804 q 360 807 368 807 q 390 807 405 801 l 448 777 q 475 762 482 754 q 490 745 487 743 l 455 718 l 424 690 l 412 679 l 380 651 l 367 666 q 344 689 315 708 q 298 719 285 719 q 256 719 245 674 q 239 649 237 618 q 235 588 235 540 l 236 507 l 236 492 q 260 492 288 494 q 315 495 348 499 l 365 501 l 382 503 l 372 490 l 363 479 l 328 437 l 317 424 l 294 397 l 239 390 l 244 306 l 246 264 q 246 214 251 166 q 256 119 260 84 l 233 66 l 206 48 l 113 -14 l 113 20 l 112 40 l 103 321 l 101 394 q 69 391 38 391 q 22 391 6 391 q -10 391 -27 392 q -33 392 -36 392 z"},"Q":{"x_min":0,"x_max":717,"ha":717,"o":"m 511 133 l 496 143 l 514 175 q 545 238 545 297 q 545 345 524 414 q 512 450 486 492 l 463 524 q 426 571 382 595 q 339 619 297 619 q 218 619 175 548 q 166 533 162 510 q 158 487 158 443 q 158 426 162 406 q 166 385 177 348 q 185 322 200 294 q 215 267 245 227 q 266 199 298 170 q 329 142 374 108 q 425 69 481 39 q 537 9 622 -24 q 696 -54 778 -75 q 859 -96 932 -107 q 1004 -118 1080 -118 q 1181 -118 1238 -116 q 1294 -113 1360 -103 l 1365 -127 l 1320 -143 q 1189 -187 1120 -197 q 1050 -207 876 -207 q 816 -207 762 -200 q 709 -193 627 -174 q 573 -161 540 -152 q 507 -142 474 -130 q 400 -103 356 -82 q 313 -60 263 -26 q 208 11 173 42 q 138 73 112 105 q 28 213 28 313 q 28 378 61 455 q 74 484 92 514 q 111 545 138 578 q 146 587 167 609 q 185 627 197 639 q 235 673 268 693 q 301 713 332 722 q 378 735 414 735 q 524 735 604 647 q 637 610 656 564 q 675 519 681 454 q 681 430 681 419 q 681 410 681 406 q 681 399 679 385 q 671 330 648 290 q 625 249 568 188 l 544 163 l 540 160 z"},"w":{"x_min":0,"x_max":940,"ha":940,"o":"m -29 413 l 107 501 q 120 509 129 509 q 155 509 188 452 q 222 396 282 249 l 285 243 l 301 211 l 324 245 l 332 256 l 445 430 l 451 438 q 483 479 507 479 q 527 479 550 454 q 572 428 609 367 l 627 336 q 663 273 681 234 q 699 196 715 152 l 746 197 q 761 220 782 252 q 797 275 802 292 q 806 308 806 322 q 806 349 786 367 q 766 385 719 400 l 705 404 q 755 460 815 505 l 835 498 l 865 487 l 909 469 q 953 452 953 430 q 953 416 938 393 l 896 331 l 805 201 l 659 -16 l 633 -17 l 619 13 l 615 22 l 571 121 l 560 147 l 545 178 q 535 196 523 217 q 508 242 501 252 q 465 300 440 300 q 414 300 372 247 q 353 224 321 166 l 311 148 l 293 113 q 277 81 268 58 q 258 36 248 12 l 244 0 l 238 -17 l 211 -15 q 205 9 201 20 q 197 32 187 60 q 164 130 137 196 q 114 252 92 294 q 65 346 42 370 q 20 393 0 393 q -8 393 -20 388 z"},"-":{"x_min":0,"x_max":444,"ha":444,"o":"m 29 265 l 135 387 q 158 377 179 375 q 200 373 283 373 l 333 374 l 387 375 l 415 376 l 395 351 l 384 338 l 332 279 l 317 256 q 288 262 258 264 q 227 266 186 266 l 114 266 z"},"E":{"x_min":0,"x_max":625,"ha":625,"o":"m -22 314 q 53 362 113 431 l 112 610 l -20 609 l 25 640 q 67 673 74 679 q 93 695 120 722 q 151 719 197 718 q 243 717 249 717 q 289 717 390 719 q 490 721 513 721 l 591 728 l 572 709 q 486 620 462 608 q 437 595 344 595 l 249 591 l 250 439 q 317 439 384 440 q 452 441 520 442 q 513 431 504 419 q 494 407 482 393 q 433 341 398 328 q 363 315 286 315 l 254 317 l 248 318 l 251 275 q 251 236 252 202 q 253 167 254 134 l 253 127 l 253 118 q 302 118 387 120 q 472 123 488 123 l 557 125 l 625 127 q 601 97 580 74 q 573 67 531 23 l 507 0 l 447 2 q 345 2 281 3 q 217 4 159 5 l 138 4 l 108 2 l 110 46 l 111 82 q 111 111 113 186 q 115 260 115 279 l 115 317 z"},"s":{"x_min":0,"x_max":453,"ha":453,"o":"m 152 179 q 152 171 152 162 q 153 152 160 138 q 173 111 199 98 q 225 84 270 84 q 315 84 315 112 q 315 122 311 131 q 299 161 274 176 q 245 194 188 205 l 139 214 l 130 216 l 113 221 q 44 253 44 298 q 44 331 80 372 q 90 383 103 394 q 122 410 150 431 q 203 471 243 489 q 283 507 316 507 q 351 507 379 485 q 413 459 413 439 q 413 418 368 385 l 349 372 l 336 364 l 326 358 l 304 344 q 294 374 271 391 q 248 408 212 408 q 205 409 199 409 q 192 409 190 409 q 181 409 176 408 q 156 403 156 385 q 156 375 164 364 q 173 353 205 331 q 215 325 228 320 q 241 314 260 310 l 352 289 q 364 286 375 279 q 424 248 424 209 q 424 179 396 142 q 369 105 311 57 q 274 26 252 12 q 229 -1 204 -8 q 178 -15 151 -15 q 140 -15 135 -14 q 76 -7 56 24 q 35 55 35 72 q 35 92 54 111 q 74 130 125 161 l 128 163 z"},"l":{"x_min":0,"x_max":259,"ha":259,"o":"m -29 694 l 73 767 l 79 771 l 106 790 l 126 803 q 144 811 156 811 q 183 811 190 787 q 192 779 193 771 q 194 763 195 753 l 195 703 l 196 653 q 206 361 206 295 l 209 252 l 212 197 l 214 155 l 215 119 l 216 78 q 141 38 71 -15 q 71 48 72 112 q 73 175 74 239 q 74 366 71 432 q 68 497 59 606 l 54 650 q 48 687 20 687 q 8 687 -12 681 l -21 677 z"},"8":{"x_min":0,"x_max":542,"ha":542,"o":"m 102 201 l 193 283 l 171 293 q 73 340 73 403 q 73 431 95 466 q 101 476 108 484 q 116 491 141 512 l 216 575 l 231 563 l 222 551 q 194 510 194 475 q 194 426 261 388 q 284 376 310 373 q 314 377 316 379 q 322 385 326 393 q 341 419 341 441 q 341 486 286 514 l 267 521 l 328 572 q 346 588 362 594 q 377 599 394 599 q 422 599 442 580 q 463 562 463 532 q 464 524 464 520 q 464 507 462 499 q 461 494 455 479 q 446 459 436 446 q 426 434 389 398 l 345 355 l 417 320 l 431 312 q 480 273 480 231 q 480 201 457 166 q 440 140 407 112 q 369 79 308 40 l 261 11 q 208 -16 178 -16 q 169 -16 164 -15 q 112 -9 84 19 q 56 47 56 91 q 56 110 62 133 q 74 176 102 201 z m 188 152 q 207 76 265 76 q 271 76 287 78 q 318 84 337 109 q 351 130 351 149 q 351 182 327 211 q 299 245 247 261 l 236 264 l 217 247 q 186 213 186 171 q 186 164 188 152 z"},"e":{"x_min":0,"x_max":462,"ha":462,"o":"m 225 219 l 212 236 l 225 246 q 249 266 262 280 q 274 293 282 305 q 294 322 294 339 q 294 385 226 404 q 215 407 207 407 q 178 407 160 384 q 141 360 141 319 q 141 273 158 234 q 174 194 203 164 q 266 100 340 100 q 376 100 415 115 l 429 121 l 440 103 l 421 86 q 358 30 339 15 q 320 0 302 -8 q 262 -24 234 -24 q 189 -24 134 16 q 121 25 117 29 q 110 36 100 46 q 29 120 29 208 q 29 266 60 324 q 92 382 156 436 q 202 475 240 491 q 277 507 319 507 q 375 507 407 481 q 439 455 439 417 q 439 400 432 383 q 424 366 408 350 q 393 333 359 308 l 316 277 l 311 274 l 270 249 z"},"b":{"x_min":0,"x_max":580,"ha":580,"o":"m -25 689 q 24 722 44 736 q 63 751 84 767 l 97 777 l 129 802 q 142 811 157 813 q 174 815 186 806 q 198 796 198 780 l 200 741 l 207 314 q 207 252 210 227 q 213 202 221 182 q 247 109 317 97 q 332 94 345 94 q 415 94 432 172 q 435 186 435 202 q 435 237 420 277 q 398 343 362 374 q 325 406 274 406 l 257 405 l 251 420 l 339 478 q 368 496 401 496 q 435 496 466 478 q 498 461 523 424 l 539 397 q 558 359 558 311 q 558 267 541 220 q 530 190 507 160 q 484 129 439 89 q 408 59 376 37 q 299 -18 241 -18 q 185 -18 128 39 q 105 63 94 92 q 82 120 78 162 q 74 203 72 287 q 71 371 71 489 l 68 547 l 60 626 q 50 682 22 682 q 14 682 -3 677 l -14 673 z"},"%":{"x_min":0,"x_max":1007,"ha":1007,"o":"m 212 -16 l 333 149 q 452 310 547 448 q 630 568 715 699 q 736 707 761 712 l 799 716 l 727 616 l 666 530 l 565 390 l 540 355 l 491 286 q 459 242 450 230 q 442 217 416 178 l 382 128 l 337 60 l 312 22 l 297 -2 q 265 -11 233 -14 z m 647 353 l 662 348 l 655 333 q 637 289 637 251 q 637 205 665 155 q 685 119 716 93 q 732 79 752 72 q 771 65 786 65 q 839 65 861 123 q 873 155 873 191 q 873 239 854 287 q 805 408 700 408 q 684 408 666 405 l 644 401 l 637 415 l 660 427 q 745 470 788 470 q 818 470 861 452 q 904 434 934 392 q 951 368 961 332 q 971 297 971 257 q 971 169 877 78 q 858 59 834 43 q 769 0 708 0 q 620 0 569 85 q 541 134 541 187 q 541 230 561 265 q 592 319 616 340 q 635 357 647 353 z m 136 615 l 150 608 l 145 566 l 136 492 q 136 467 148 437 q 160 407 181 380 q 189 369 202 357 q 214 345 224 337 q 256 316 286 316 q 315 316 338 336 q 360 357 368 395 l 372 427 q 372 473 368 500 q 363 528 346 561 q 294 660 200 660 q 193 660 184 659 q 176 658 171 658 l 146 654 l 138 664 l 163 680 q 239 723 293 723 q 345 723 401 681 q 432 657 451 620 q 470 582 470 534 q 470 476 453 435 q 436 394 385 336 q 376 325 370 319 q 363 313 346 301 q 310 275 274 262 q 238 249 206 249 q 113 249 60 347 q 36 392 36 434 q 36 440 36 446 q 38 454 38 458 q 43 491 52 508 q 61 526 92 562 z"},"m":{"x_min":0,"x_max":1003,"ha":1003,"o":"m -22 393 l 43 436 l 114 487 l 122 493 q 131 501 146 503 q 169 508 184 486 q 198 463 205 401 l 206 388 l 216 277 l 218 251 q 262 307 311 359 q 360 411 429 474 l 432 477 l 445 490 q 463 508 481 508 q 508 508 526 474 q 539 452 550 404 q 561 355 568 274 l 570 245 q 626 318 684 380 q 728 427 748 446 q 769 465 796 487 q 807 496 820 501 q 833 506 843 506 q 878 506 891 470 q 894 462 900 432 q 907 401 914 370 l 931 267 l 935 241 l 937 225 l 942 178 l 949 114 l 953 72 q 893 36 845 0 l 835 -8 l 825 -16 l 819 45 q 806 154 798 203 q 789 252 782 273 q 762 331 730 331 q 713 331 688 314 q 671 302 646 276 q 617 245 583 200 q 561 172 538 136 q 516 99 493 59 l 475 25 l 455 29 q 455 64 452 90 q 449 115 441 164 l 439 181 l 433 215 l 431 226 l 422 266 q 410 320 372 320 q 357 320 340 309 l 318 293 q 281 261 257 233 q 233 205 189 140 q 164 102 142 62 q 121 22 105 -16 l 75 -16 l 76 35 l 76 191 q 76 283 69 314 q 62 345 41 369 q 29 383 16 383 q 4 383 -4 370 z"},",":{"x_min":0,"x_max":266,"ha":266,"o":"m 36 92 l 50 104 q 91 139 143 166 l 175 144 q 230 99 230 64 q 230 51 223 38 q 216 25 202 11 l 186 -2 l 180 -6 l 150 -24 l 137 -32 l 81 -69 l 64 -51 l 75 -40 q 89 -24 96 -12 q 103 1 103 13 q 103 40 54 80 z"},"n":{"x_min":0,"x_max":612,"ha":612,"o":"m -29 384 l 131 502 q 138 507 146 507 q 166 507 184 480 q 191 468 196 448 q 201 427 205 385 l 206 379 l 210 309 l 211 293 l 215 251 l 276 329 q 313 373 346 408 q 378 442 414 474 q 449 507 474 507 q 505 507 526 452 q 531 440 536 417 q 550 361 563 276 l 580 161 l 586 113 l 588 94 l 590 72 l 559 55 q 508 23 462 -15 l 460 -1 l 441 140 q 433 195 427 225 q 421 255 416 266 q 394 317 366 317 q 347 317 318 296 q 290 275 249 223 q 201 163 163 95 q 151 74 140 51 q 130 28 122 7 l 118 -3 l 113 -15 l 85 -13 q 85 32 83 66 q 76 186 76 188 l 65 295 l 63 313 l 60 335 q 57 355 46 366 q 34 378 17 378 q 5 378 -8 371 l -17 365 z"},"h":{"x_min":0,"x_max":628,"ha":628,"o":"m -29 689 q -30 693 1 713 q 25 728 89 769 l 107 780 l 125 791 q 133 795 141 800 q 144 802 151 804 q 157 807 165 807 q 183 807 196 789 q 208 771 208 737 q 208 694 209 658 q 210 623 212 585 l 212 352 l 212 247 l 247 288 q 305 356 328 381 q 350 406 371 426 q 453 502 485 502 q 510 502 529 458 q 539 436 550 376 q 560 315 567 261 l 573 195 l 577 151 l 579 112 l 585 69 l 553 49 l 522 28 l 487 5 l 453 -18 q 453 21 450 52 q 448 83 442 132 q 437 180 430 216 q 423 252 417 268 q 399 320 370 320 q 348 320 314 292 q 302 283 286 266 q 269 250 259 240 q 234 214 209 181 q 130 80 93 -16 l 69 -7 l 72 46 l 74 105 q 74 194 74 275 q 74 356 75 429 l 74 455 l 68 552 q 68 583 66 604 q 63 624 56 646 q 49 669 42 678 q 34 686 22 686 q 10 686 -14 675 l -24 669 z"},"z":{"x_min":0,"x_max":465,"ha":465,"o":"m 101 482 l 165 529 l 168 520 q 179 495 190 490 q 200 484 235 484 l 324 488 l 338 489 l 422 496 l 428 476 l 416 460 l 409 451 l 405 446 l 306 331 l 276 295 q 244 255 230 237 q 217 219 201 193 q 190 176 190 161 q 190 141 206 136 q 221 131 239 129 l 282 126 l 287 125 q 330 125 348 126 q 366 128 390 132 q 414 135 424 136 q 433 138 454 144 q 390 69 318 -1 l 281 -4 q 253 -4 228 -4 q 202 -4 179 -5 q 147 -5 130 -2 q 113 0 109 1 q 103 3 89 7 q 42 26 42 58 q 42 89 86 145 l 262 361 l 105 354 l 85 355 q 53 362 38 377 q 29 388 29 400 q 29 416 42 430 l 70 457 z"},"B":{"x_min":0,"x_max":654,"ha":654,"o":"m -43 590 l 85 709 q 127 718 154 722 q 181 726 210 726 q 317 726 380 718 q 444 709 486 686 q 576 636 576 557 q 576 498 521 449 l 507 437 l 529 423 l 551 409 l 569 394 q 591 373 604 349 q 618 325 622 306 q 625 286 625 271 q 625 237 606 206 q 587 175 537 129 l 510 106 l 482 86 l 454 66 q 397 24 364 8 q 330 -7 291 -7 q 280 -7 264 -6 q 249 -4 232 -2 q 215 0 182 7 q 149 14 112 25 l 94 30 l 80 35 q 88 103 93 166 q 98 228 98 286 q 98 520 87 599 l 20 596 z m 273 128 q 308 118 342 112 q 375 107 394 107 q 400 107 406 107 q 414 109 417 109 q 450 113 471 139 q 492 165 492 201 q 492 232 474 262 q 457 293 423 318 q 408 329 392 336 q 376 343 351 350 l 326 357 l 314 360 l 316 379 l 332 383 q 374 396 397 418 q 434 452 434 496 q 434 542 394 568 q 380 576 366 583 q 352 590 332 596 q 313 602 280 604 q 248 607 238 607 q 238 490 239 373 q 240 256 241 140 z"},"K":{"x_min":0,"x_max":695,"ha":695,"o":"m 262 374 l 417 504 q 436 519 456 541 q 475 563 475 580 q 475 608 429 629 q 409 639 401 642 q 393 645 381 649 q 420 672 456 697 l 511 740 l 533 734 l 570 719 q 633 688 633 657 q 633 636 608 608 l 502 515 l 403 426 l 416 411 l 423 402 l 535 246 l 543 236 l 623 131 q 649 98 669 98 q 678 98 692 104 l 702 84 l 674 63 q 583 -9 553 -9 q 541 -9 525 -1 q 509 9 500 22 l 520 2 q 480 54 451 97 q 427 132 329 279 z m 14 628 l 108 687 q 126 700 142 712 q 159 725 182 739 q 191 745 201 745 q 224 745 232 722 q 237 708 240 646 q 242 584 242 364 l 243 177 l 243 75 l 204 54 q 148 23 97 -16 q 97 61 98 134 q 99 207 100 279 q 100 395 98 438 q 97 480 92 530 l 91 538 l 85 575 q 82 591 74 604 q 66 616 49 616 q 38 616 25 605 z"},"R":{"x_min":0,"x_max":693,"ha":693,"o":"m -36 597 l -5 627 l 26 657 l 57 686 l 87 715 q 126 723 154 728 q 183 732 211 732 q 338 732 381 728 q 424 724 455 715 q 514 696 546 669 q 605 619 605 560 q 605 495 533 429 q 525 422 516 414 q 506 406 486 393 l 468 382 l 485 356 l 493 344 l 529 289 l 564 234 l 592 194 q 636 137 655 118 q 674 99 686 99 q 690 99 698 101 l 715 84 l 691 69 l 589 3 l 583 -1 q 569 -8 559 -8 q 532 -8 495 35 q 455 82 386 198 q 343 268 314 349 l 380 384 l 398 395 q 455 438 455 492 q 455 536 422 569 q 389 602 325 613 q 315 615 302 616 q 289 617 277 617 q 270 617 264 617 q 255 615 251 615 l 251 207 l 253 146 l 256 84 l 214 57 l 173 29 l 137 4 l 100 -21 l 104 59 q 104 243 105 348 q 106 454 107 553 l 106 578 l 105 602 l 36 601 z"},"T":{"x_min":0,"x_max":692,"ha":692,"o":"m -22 615 q 5 640 51 676 q 79 698 98 712 l 114 723 l 130 734 l 242 727 q 305 727 366 726 q 428 726 489 726 q 509 726 519 726 q 601 726 632 728 q 664 729 721 734 l 615 629 q 608 622 596 616 q 583 610 560 603 q 554 602 534 599 q 514 596 472 596 l 409 595 l 406 472 q 406 366 409 279 q 412 192 420 99 q 326 44 246 -21 l 251 41 l 252 598 q 200 598 154 600 q 108 603 -22 615 z"},"P":{"x_min":0,"x_max":585,"ha":585,"o":"m -36 597 q -12 618 12 642 q 37 665 62 693 l 86 720 l 154 730 q 213 736 260 736 q 341 736 397 722 q 453 709 492 684 q 525 663 546 637 q 568 611 577 582 q 586 553 586 528 q 586 484 556 446 q 525 407 460 371 q 441 360 418 352 q 394 343 351 329 l 314 317 l 307 338 l 334 351 q 385 379 406 406 q 427 433 427 472 q 427 488 424 506 q 416 549 373 579 q 330 609 267 609 l 239 607 l 241 363 l 243 225 l 245 88 q 160 37 93 -15 l 102 179 l 103 229 q 103 366 100 480 q 98 595 98 608 q 25 608 -36 597 z"},"t":{"x_min":0,"x_max":316,"ha":316,"o":"m -22 377 l 35 450 l 50 471 l 65 491 l 97 488 l 100 545 l 141 572 l 182 599 l 212 619 l 242 638 l 234 492 l 299 492 q 318 492 340 494 q 361 495 388 499 q 322 442 272 381 l 230 380 l 230 366 l 228 295 q 228 245 228 224 q 228 204 229 195 l 230 189 l 236 150 q 241 118 249 106 q 257 94 275 89 q 283 87 288 87 q 295 87 305 91 l 316 71 q 299 58 282 46 q 265 35 246 24 l 239 20 l 210 3 q 175 -17 154 -17 q 120 -17 98 54 q 91 80 88 126 q 86 172 86 297 l 90 379 l 59 379 q 47 379 20 378 q -7 377 -22 377 z"},"M":{"x_min":0,"x_max":1070,"ha":1070,"o":"m 43 -17 l 66 113 l 74 159 l 93 254 l 119 384 l 136 467 l 109 513 q 61 603 61 629 q 61 645 75 661 l 88 672 l 147 707 l 198 739 q 207 689 224 652 q 240 614 299 514 q 355 418 426 340 q 532 222 598 222 q 660 222 717 323 q 729 345 742 384 q 756 422 768 472 q 774 497 778 532 q 782 568 782 609 l 782 638 l 899 704 l 946 732 l 993 760 l 937 616 l 920 571 q 933 460 954 372 q 972 300 985 257 q 998 214 1007 191 q 1027 141 1036 118 q 1045 95 1045 88 q 1045 81 1039 72 l 1011 56 l 902 -16 l 883 39 q 851 137 832 212 q 814 286 801 363 l 775 323 l 767 310 l 712 223 l 689 190 q 673 169 668 163 q 663 157 646 139 q 577 69 528 69 q 491 69 441 104 q 419 119 390 147 q 354 182 306 237 l 237 317 q 228 265 222 204 q 217 143 217 95 l 174 70 q 103 26 43 -17 z"},"g":{"x_min":0,"x_max":645,"ha":645,"o":"m 163 -12 l 181 -25 l 173 -37 q 166 -50 166 -64 q 166 -116 243 -127 q 253 -128 260 -128 q 268 -129 273 -129 q 317 -129 358 -110 l 386 -95 q 421 -73 438 -50 q 455 -26 455 -6 q 455 32 438 50 q 420 68 367 78 l 320 85 l 181 106 q 142 112 130 115 q 118 118 106 125 q 43 160 43 213 q 43 251 76 300 q 109 350 178 410 q 246 469 283 486 q 320 502 377 502 l 388 501 l 420 497 q 428 497 435 497 q 462 497 484 498 q 507 499 575 506 l 629 510 l 585 458 l 539 404 l 469 399 l 469 380 q 469 348 460 330 q 452 313 427 291 l 402 267 l 398 264 l 381 249 l 369 238 l 355 252 l 362 269 q 365 283 365 296 q 365 341 325 374 q 318 380 309 384 q 292 392 280 394 q 268 395 258 395 q 246 395 235 392 q 206 384 189 362 q 172 340 172 314 q 172 297 181 280 q 190 262 206 248 q 223 234 239 228 q 255 222 296 215 l 487 184 l 503 180 q 600 147 600 77 q 600 33 562 -15 q 506 -90 393 -152 q 376 -161 360 -168 q 344 -176 323 -184 q 268 -206 226 -216 q 184 -225 149 -225 q 141 -225 132 -224 q 124 -223 120 -223 q 91 -218 74 -213 q 58 -208 47 -202 q 20 -187 20 -160 q 20 -139 38 -121 q 44 -114 58 -102 q 72 -89 104 -62 z"},"j":{"x_min":0,"x_max":291,"ha":291,"o":"m -14 392 l 153 503 q 161 508 170 508 q 186 508 200 494 q 209 485 212 462 q 215 438 215 372 q 215 287 216 184 q 217 82 218 -17 l 220 -102 l 222 -176 q 178 -189 144 -204 q 125 -212 110 -220 q 95 -228 73 -240 l 73 150 q 73 280 70 318 q 67 357 57 372 q 47 388 30 388 q 20 388 9 380 l 0 372 z m 42 608 q 84 646 129 677 l 162 698 l 177 682 q 199 656 212 646 q 226 635 248 629 l 159 560 q 146 549 121 549 q 111 549 97 552 q 83 555 72 564 q 62 573 48 595 z"},"i":{"x_min":0,"x_max":291,"ha":291,"o":"m 42 608 q 84 646 129 677 l 162 698 l 177 682 q 199 656 212 646 q 226 635 248 629 l 159 560 q 146 549 121 549 q 111 549 97 552 q 83 555 72 564 q 62 573 48 595 z m -14 397 l 42 429 q 74 451 110 475 q 145 499 154 507 q 164 513 174 513 q 177 513 191 510 q 205 507 214 490 q 222 472 222 428 l 229 266 l 233 82 q 158 38 91 -15 q 91 20 90 77 q 89 134 89 156 l 80 305 q 80 386 39 386 q 26 386 9 380 l 0 376 z"},"y":{"x_min":0,"x_max":614,"ha":614,"o":"m -22 409 l -1 425 l 20 439 l 40 453 l 93 488 q 115 502 129 508 q 143 514 153 514 q 168 514 178 507 q 187 500 190 489 l 235 260 q 236 250 247 216 q 258 183 280 183 q 293 183 311 198 q 342 222 376 265 q 398 294 424 337 q 449 380 485 450 l 512 506 l 548 507 l 550 64 l 556 -184 l 412 -233 l 414 -109 q 414 -41 412 15 q 405 209 405 223 l 370 175 l 284 66 l 273 53 q 261 39 249 27 q 237 15 234 12 q 211 -6 191 -6 q 158 -6 141 34 q 137 42 129 75 q 121 108 113 144 l 102 193 l 87 266 l 82 284 q 65 348 60 362 q 56 377 49 387 q 38 404 19 404 q 1 404 -13 387 z"},".":{"x_min":0,"x_max":261,"ha":261,"o":"m 140 166 l 146 147 q 169 84 222 54 l 120 -14 q 115 -16 104 -16 q 72 -16 52 12 q 33 39 33 61 q 33 87 66 113 l 100 138 l 103 140 z"},"p":{"x_min":0,"x_max":564,"ha":564,"o":"m -29 387 l 147 505 q 153 510 164 510 q 189 510 200 482 q 205 469 205 456 l 207 426 l 207 422 l 208 395 l 247 423 q 311 470 346 490 q 382 510 407 510 q 423 510 440 500 q 456 489 474 468 l 486 453 q 513 416 527 370 q 541 324 541 285 q 541 224 506 178 q 472 132 393 86 q 347 59 290 39 l 275 59 l 295 70 q 351 105 375 136 q 399 166 399 206 q 399 244 380 297 q 355 365 314 390 q 300 398 285 398 q 262 398 242 380 q 222 362 217 336 q 212 309 212 264 q 212 233 213 150 q 214 67 214 19 l 218 -178 q 147 -190 80 -222 l 77 8 l 76 60 q 76 227 73 264 q 70 301 56 352 q 47 382 23 382 q 7 382 -12 369 l -18 364 z"},"X":{"x_min":0,"x_max":736,"ha":736,"o":"m 7 -20 l 168 165 q 193 193 219 228 q 252 273 299 340 l 291 350 l 159 531 q 128 572 107 591 q 86 610 69 610 q 58 610 43 600 l 34 617 l 182 728 q 190 734 197 734 q 211 734 234 704 q 257 673 312 581 q 320 567 334 546 q 353 516 393 459 l 417 491 q 447 534 458 560 q 470 585 476 622 l 479 641 l 530 666 l 712 751 l 729 739 l 670 673 q 619 614 575 561 q 527 504 497 466 l 473 436 l 445 401 l 475 358 q 567 229 605 180 q 638 138 653 126 q 674 109 692 109 q 704 109 717 120 l 727 98 q 661 57 638 38 q 615 20 591 0 q 572 -15 559 -13 q 548 -13 541 -7 q 534 -1 518 22 l 398 194 l 389 207 l 346 278 q 343 274 330 256 q 326 251 321 241 q 279 174 268 148 q 258 122 258 90 l 258 73 l 258 65 q 206 46 166 30 q 126 13 78 -11 l 22 -39 z"},"*":{"x_min":0,"x_max":387,"ha":387,"o":"m 36 561 l 36 589 q 41 631 57 668 l 70 656 q 110 622 134 622 q 143 622 152 625 q 138 642 130 662 q 121 683 121 703 l 121 732 q 138 732 173 733 q 208 734 227 734 q 210 699 205 656 l 205 630 q 213 643 223 654 q 233 664 247 674 q 273 692 299 700 l 316 678 q 326 663 336 643 q 345 623 351 602 q 335 604 327 604 q 314 604 300 601 q 286 598 272 593 l 249 581 l 276 571 q 315 551 338 514 l 338 505 l 325 484 q 305 454 276 428 q 257 487 208 531 l 203 507 l 200 495 l 194 463 q 192 452 188 443 q 183 434 170 418 q 140 427 113 442 q 91 456 73 473 l 93 486 q 118 505 130 521 q 142 537 148 558 q 125 548 100 548 q 78 548 49 557 z"},"Y":{"x_min":0,"x_max":775,"ha":775,"o":"m -36 629 l -13 646 q 105 734 131 734 q 158 734 233 643 l 260 608 q 325 524 346 493 q 364 468 422 374 l 443 339 q 456 356 470 378 q 485 400 492 412 q 516 456 537 496 q 558 537 563 555 q 572 587 572 609 q 572 631 565 649 l 624 678 l 682 708 l 738 738 l 795 768 l 811 755 q 790 734 778 717 q 766 700 705 604 l 688 578 l 668 546 l 607 449 l 588 419 l 541 347 q 501 287 490 253 q 479 219 479 162 l 480 115 l 481 92 l 446 68 l 326 -17 q 326 -2 326 13 q 326 28 327 44 q 327 128 322 170 q 318 211 308 240 q 297 269 274 306 q 245 353 190 427 q 156 471 156 472 q 148 482 115 520 q 61 580 41 597 q 17 618 -1 618 q -5 618 -12 616 q -20 613 -25 612 z"},"c":{"x_min":0,"x_max":452,"ha":452,"o":"m 316 312 q 312 346 288 373 q 269 395 250 406 q 232 416 213 416 q 187 416 165 396 l 153 384 q 136 361 136 327 q 136 303 146 262 q 157 220 193 178 q 224 141 248 124 q 271 107 297 100 q 323 93 346 93 q 377 93 401 103 l 417 82 l 367 45 q 282 -18 219 -18 q 138 -18 66 84 q 53 102 46 117 q 38 132 32 153 q 22 189 22 223 q 22 263 40 307 q 66 369 126 420 q 160 449 188 466 q 215 482 240 491 q 281 503 312 503 q 362 503 403 473 q 434 451 434 423 q 434 393 400 368 l 375 349 l 366 343 l 353 334 l 343 327 z"},"!":{"x_min":0,"x_max":333,"ha":333,"o":"m 176 166 l 182 147 q 205 84 258 54 l 156 -14 q 151 -16 140 -16 q 108 -16 88 12 q 69 39 69 61 q 69 87 102 113 l 136 138 l 139 140 z m 72 616 l 114 645 l 157 675 l 200 706 l 243 738 l 237 512 l 231 262 l 114 185 l 102 306 l 90 427 l 81 521 z"},"/":{"x_min":0,"x_max":614,"ha":614,"o":"m 7 -14 l 111 128 q 290 373 366 482 q 442 590 525 720 q 547 727 568 730 q 588 734 607 734 l 582 696 l 546 648 q 501 588 471 546 q 413 466 318 332 q 201 167 126 53 l 111 30 l 91 0 q 68 -7 48 -10 q 28 -14 7 -14 z"},"6":{"x_min":0,"x_max":543,"ha":543,"o":"m 347 605 l 367 577 l 357 569 l 339 555 l 320 540 l 311 532 l 281 503 q 178 394 178 290 q 178 277 179 269 q 180 261 183 243 q 198 174 236 135 q 259 111 272 100 q 286 90 299 85 q 312 80 326 80 q 344 80 356 92 q 368 103 370 115 q 371 127 371 136 q 371 158 360 190 l 351 213 q 320 273 252 297 l 230 304 l 294 350 l 307 358 q 345 381 374 381 q 425 381 468 306 q 482 280 487 250 q 489 240 489 222 q 489 172 454 124 q 418 77 334 20 q 281 -15 235 -15 q 178 -15 121 42 q 74 88 59 153 q 53 180 53 204 q 53 214 54 228 q 56 241 60 265 q 69 313 100 362 q 131 412 191 474 l 222 503 l 231 512 l 299 570 l 319 587 l 322 589 z"},"r":{"x_min":0,"x_max":406,"ha":406,"o":"m -22 389 l 145 501 q 152 505 161 505 q 173 505 184 497 q 195 489 199 451 l 202 420 l 203 416 l 204 374 l 313 473 l 322 480 q 356 505 372 505 q 397 505 427 439 q 438 417 442 391 l 419 371 l 396 352 l 322 295 q 322 313 301 343 q 290 358 277 366 q 270 370 261 370 q 235 370 223 335 q 215 311 212 291 q 209 271 209 233 q 209 199 209 167 q 209 135 210 105 l 210 70 l 182 52 l 155 33 l 116 7 l 76 -20 q 76 9 76 38 q 76 68 77 98 q 77 111 77 117 q 77 184 70 254 q 63 323 54 351 q 44 379 24 379 q 13 379 0 372 l -10 365 z"},"2":{"x_min":0,"x_max":542,"ha":542,"o":"m 60 33 l 76 50 l 83 56 l 174 145 q 208 179 236 215 q 263 251 275 276 q 297 321 297 356 q 297 363 296 372 q 294 381 293 386 q 269 479 171 491 q 157 493 150 493 q 143 493 132 492 q 122 490 115 489 l 99 486 l 86 483 l 75 503 q 85 512 96 521 q 101 525 119 537 q 219 604 267 604 q 294 604 332 589 q 349 581 351 580 q 358 576 368 567 q 426 518 426 443 q 426 433 426 428 q 425 421 425 418 q 421 380 400 343 q 380 306 318 232 l 232 127 l 290 128 l 349 129 l 417 131 l 484 133 l 403 31 l 372 -8 q 330 4 286 6 q 242 9 155 9 q 135 9 114 6 q 93 3 85 2 z"},"9":{"x_min":0,"x_max":542,"ha":542,"o":"m 193 -16 l 173 12 l 183 20 l 202 35 l 220 49 l 229 57 l 260 87 q 311 141 336 195 q 362 249 362 300 q 362 321 357 346 q 342 414 304 455 q 285 475 269 488 q 253 500 240 505 q 226 510 215 510 q 195 510 182 498 q 170 487 170 468 q 169 458 169 453 q 169 443 172 430 q 175 417 180 399 l 190 376 q 219 317 288 292 l 310 286 l 246 239 l 233 231 q 195 208 166 208 q 116 208 72 283 q 58 309 54 334 q 51 358 51 367 q 51 417 86 465 q 122 513 206 569 q 260 605 306 605 q 361 605 420 548 q 466 500 481 436 q 487 409 487 385 q 487 359 479 318 q 471 276 440 226 q 409 177 350 116 l 319 86 l 309 78 l 241 19 l 221 2 l 218 0 z"}," ":{"x_min":0,"x_max":290,"ha":290,"o":""},"I":{"x_min":0,"x_max":317,"ha":317,"o":"m 14 626 l 21 631 l 143 712 l 174 731 q 187 738 199 738 q 227 738 233 705 l 235 687 l 237 622 l 237 614 l 243 191 l 245 83 l 211 61 l 178 39 l 99 -15 l 100 191 q 100 255 98 308 q 97 360 96 416 q 96 483 93 506 q 90 530 89 539 q 84 575 81 586 q 78 598 73 606 q 65 619 51 619 q 38 619 29 607 z"},"H":{"x_min":0,"x_max":777,"ha":777,"o":"m 72 643 l 142 684 l 216 738 l 215 662 q 215 599 216 532 q 216 464 217 392 l 255 392 l 294 391 q 354 391 415 392 q 476 393 537 394 l 538 454 l 539 515 l 539 580 l 539 645 l 578 673 l 617 700 l 651 724 l 685 748 q 685 715 684 646 q 683 578 683 544 l 689 396 l 799 399 q 763 356 727 326 l 689 294 l 687 278 l 686 262 l 687 218 q 687 161 694 142 q 702 123 721 117 q 729 114 736 114 q 749 114 761 124 l 772 106 l 705 61 l 702 58 q 652 21 632 7 q 611 -7 599 -11 q 592 -15 583 -15 q 556 -15 551 23 l 548 56 l 543 192 l 542 280 l 498 283 l 279 283 l 249 281 l 217 278 l 217 219 q 217 195 217 173 q 217 151 220 133 q 224 115 230 104 q 237 93 251 93 q 262 93 271 102 l 284 85 q 256 70 233 57 q 202 39 188 29 l 129 -12 q 121 -18 112 -18 q 93 -18 86 0 q 83 9 81 34 q 79 58 79 85 l 74 314 l 72 467 l 72 510 l 72 568 z"},"4":{"x_min":0,"x_max":545,"ha":545,"o":"m 286 619 l 311 595 l 291 570 l 246 513 q 237 502 215 470 q 206 457 197 444 l 191 434 l 172 399 l 167 390 l 149 353 q 141 335 141 321 q 141 301 153 289 q 165 277 185 277 l 212 275 l 254 274 l 258 416 l 389 500 l 386 340 l 384 281 l 516 299 l 465 225 l 447 201 l 429 177 q 419 177 408 176 q 398 174 392 173 l 381 170 l 377 60 l 350 42 q 323 25 298 10 q 274 -4 243 -21 l 245 25 l 247 72 l 248 115 l 249 159 l 118 157 l 97 157 q 1 157 1 218 q 1 237 9 260 q 17 283 36 314 q 59 351 103 413 q 158 489 203 539 q 245 585 286 619 z"},"D":{"x_min":0,"x_max":732,"ha":732,"o":"m -43 589 l 99 718 l 146 724 q 170 724 194 724 q 218 724 241 725 q 301 725 320 724 q 339 722 373 716 q 467 698 522 669 q 578 640 623 589 q 633 578 640 569 q 643 566 655 547 q 681 507 692 468 q 703 428 703 383 q 703 336 696 311 q 688 286 658 233 q 651 218 636 198 q 621 178 599 155 q 567 119 512 79 q 439 27 402 10 q 357 -11 308 -11 q 258 -11 153 14 l 99 29 q 99 91 106 304 q 110 426 110 489 l 109 554 l 108 603 q 76 603 51 602 q 26 601 -1 597 z m 255 317 l 256 256 l 257 154 q 284 139 311 131 q 338 123 378 119 q 389 118 402 118 q 414 117 420 117 q 491 117 525 150 q 559 183 568 260 q 569 270 570 278 q 570 286 570 292 q 570 340 553 393 q 528 467 480 514 q 432 561 359 584 q 332 592 319 595 q 306 598 288 598 q 279 600 268 600 q 258 600 252 600 l 252 462 z"},"0":{"x_min":0,"x_max":544,"ha":544,"o":"m 195 432 q 190 414 182 400 q 175 387 169 378 q 163 369 158 349 q 154 329 154 305 q 154 297 155 288 q 156 279 156 274 q 161 226 191 181 q 215 143 244 124 q 273 104 301 104 q 342 104 371 141 q 392 169 392 248 q 392 273 386 298 q 379 324 366 351 q 338 411 305 441 q 272 471 211 492 q 195 498 187 500 q 165 506 143 506 l 151 514 l 157 519 l 188 543 q 236 575 263 587 q 290 599 315 599 q 323 599 347 595 q 390 586 426 552 q 463 519 492 456 q 522 392 522 338 q 522 284 492 228 q 463 172 399 103 q 288 -18 214 -18 q 153 -18 82 58 q 47 96 34 140 q 22 184 22 217 q 22 273 57 329 q 80 365 104 384 q 128 404 177 425 z"},"F":{"x_min":0,"x_max":578,"ha":578,"o":"m -22 605 l 116 728 q 145 724 169 723 q 193 722 228 722 q 268 722 356 724 q 444 727 482 727 l 560 733 l 600 736 l 532 671 l 506 644 l 495 633 q 476 614 457 606 q 438 599 407 599 l 314 595 l 291 594 l 252 593 q 250 578 250 550 q 249 523 249 507 l 249 440 l 339 440 q 386 440 420 443 q 454 446 530 454 l 475 395 l 460 379 q 420 332 399 324 q 369 312 273 312 l 250 311 l 257 79 l 219 56 q 196 41 164 20 q 141 4 110 -18 l 111 72 l 112 99 l 112 227 l 111 323 l 81 325 q 65 325 32 324 q -1 323 -17 323 l 111 429 q 111 470 110 495 q 106 596 106 607 l 80 607 l 54 607 l 16 606 z"},"`":{"x_min":0,"x_max":319,"ha":319,"o":"m 0 607 l 68 695 l 90 671 q 125 636 163 618 q 201 600 266 587 l 283 584 l 274 544 l 258 542 q 183 542 136 551 q 89 560 25 593 z"},"k":{"x_min":0,"x_max":576,"ha":576,"o":"m -25 694 l 77 767 l 83 771 l 110 790 l 130 803 q 148 811 160 811 q 187 811 194 787 q 196 779 197 771 q 198 763 199 753 l 199 703 l 200 653 q 210 361 210 295 l 213 252 l 216 197 l 218 155 l 219 119 l 220 78 q 145 38 75 -15 q 75 48 76 112 q 77 175 78 239 q 78 366 75 432 q 72 497 63 606 l 58 650 q 52 687 24 687 q 12 687 -8 681 l -17 677 z m 233 255 l 314 321 q 321 327 324 330 q 332 338 339 348 q 352 366 352 379 q 352 410 296 426 q 286 429 276 428 l 343 479 l 370 501 l 397 523 l 420 520 q 450 513 482 495 q 514 477 514 454 q 514 427 469 389 l 370 305 l 467 196 q 510 147 533 128 q 556 109 573 109 q 576 109 586 111 l 598 91 l 512 22 q 501 13 494 8 q 479 -2 467 -2 q 439 -2 349 109 l 295 176 z"},"u":{"x_min":0,"x_max":631,"ha":631,"o":"m -14 407 l 140 497 q 150 504 162 502 q 174 502 183 494 q 192 486 192 476 l 204 360 l 212 306 l 224 219 q 225 213 226 206 q 228 199 234 186 q 241 172 262 172 q 274 172 288 180 q 312 195 332 214 q 352 234 376 268 q 400 303 411 338 q 422 372 422 411 l 454 437 q 486 461 512 478 q 542 498 573 515 q 570 482 568 446 q 567 410 567 363 l 567 239 l 571 132 l 573 81 l 534 58 q 510 43 480 22 q 450 1 425 -19 l 419 260 l 399 234 l 397 232 l 385 211 q 370 188 352 165 q 330 137 290 91 l 259 55 l 256 51 l 253 49 l 216 17 l 185 -8 q 173 -17 158 -17 q 130 -17 116 10 q 110 20 108 30 q 105 39 99 70 q 97 82 88 156 q 78 230 70 294 q 63 358 54 374 q 46 389 20 389 q 14 389 -2 387 l -9 386 z"},"U":{"x_min":0,"x_max":827,"ha":827,"o":"m 37 654 l 163 731 l 165 703 l 170 669 q 179 593 196 531 q 219 445 250 381 l 251 377 l 268 344 q 290 298 308 266 q 326 235 341 215 q 405 129 456 129 q 501 129 541 190 q 570 233 588 280 q 607 326 619 388 q 627 427 627 512 l 627 546 l 626 591 l 626 598 l 627 624 l 673 651 l 718 677 l 772 709 l 826 742 l 822 715 l 817 693 q 807 637 784 559 q 766 500 761 486 q 752 462 728 405 q 693 322 671 281 q 626 199 589 143 q 552 87 524 57 q 493 23 472 8 q 451 -7 426 -14 q 402 -20 386 -20 q 348 -20 310 8 q 273 36 218 105 q 191 139 162 188 q 127 246 81 337 q 64 372 61 380 q 52 401 44 421 q 1 536 1 587 q 1 612 10 628 q 18 643 37 654 z"},"o":{"x_min":0,"x_max":522,"ha":522,"o":"m 182 382 l 170 344 q 156 303 156 272 q 156 249 165 217 q 187 144 254 106 l 273 96 q 292 88 308 88 q 368 88 376 167 q 376 204 370 232 q 365 259 348 290 q 316 350 272 380 q 229 409 178 409 q 171 409 165 409 q 156 407 152 407 l 131 402 l 127 420 q 147 437 169 450 q 213 477 248 490 q 283 503 313 503 q 362 503 414 465 q 434 449 450 428 q 465 408 476 381 q 487 354 493 330 q 499 305 499 282 q 499 183 395 85 q 287 -17 205 -17 q 134 -17 72 63 q 28 120 28 189 q 28 236 47 266 q 66 296 127 345 q 137 353 152 363 q 166 373 182 382 z"},"N":{"x_min":0,"x_max":840,"ha":840,"o":"m -43 631 l 88 729 q 101 737 113 737 q 131 737 160 718 l 194 696 q 219 678 250 651 q 267 636 318 590 l 372 541 q 469 452 538 380 l 586 328 l 601 311 l 630 286 l 631 346 q 631 477 626 532 q 622 588 607 641 l 684 698 l 768 756 l 767 716 l 766 682 l 764 614 q 760 521 757 402 q 754 284 754 178 l 754 163 l 749 70 l 720 49 l 691 29 l 661 8 l 631 -14 l 622 10 q 596 70 570 108 q 543 147 469 229 q 427 277 374 328 l 304 393 l 286 408 l 265 425 l 262 400 l 261 384 q 261 361 260 302 q 259 243 259 217 l 260 198 l 263 127 l 263 118 l 264 83 l 226 62 q 173 29 110 -17 l 116 114 l 122 246 l 128 390 l 134 535 l 125 543 l 105 560 q 68 591 40 606 q 13 620 -6 620 q -18 620 -31 615 z"},"G":{"x_min":0,"x_max":699,"ha":699,"o":"m 468 579 q 448 604 415 624 q 394 637 373 644 q 352 650 329 650 q 282 650 244 620 q 207 589 190 532 q 180 499 180 452 q 180 428 183 402 q 186 376 192 354 q 198 331 203 315 q 208 299 216 283 q 260 182 344 133 q 393 102 447 95 q 453 94 464 94 q 503 94 528 120 q 552 145 552 189 q 552 202 549 219 l 542 244 q 517 315 438 341 l 427 344 l 456 368 l 501 402 q 542 429 580 429 q 616 429 642 404 q 669 380 681 334 q 686 311 686 294 q 686 247 647 185 q 633 164 614 142 q 595 120 568 97 q 549 81 536 71 q 522 61 500 48 l 481 37 l 464 28 q 398 -8 333 -8 q 222 -8 126 100 q 100 128 82 159 q 38 233 30 317 q 30 405 52 469 q 75 533 136 597 q 158 620 184 638 q 214 659 265 686 q 286 697 314 707 q 341 717 362 722 q 383 726 416 730 q 449 734 471 734 q 525 729 545 724 q 565 720 581 708 q 597 696 597 679 q 597 661 580 649 l 494 594 z"},"q":{"x_min":0,"x_max":555,"ha":555,"o":"m 503 470 q 503 386 501 186 q 499 -15 499 -58 l 502 -124 l 505 -182 l 356 -225 l 362 160 l 365 258 l 367 355 q 323 380 257 390 q 241 392 235 392 q 161 392 161 315 q 161 307 163 295 q 165 283 168 269 q 178 225 188 204 q 197 183 215 159 q 239 128 262 114 q 286 100 311 100 q 316 100 330 102 l 338 84 l 325 73 q 240 2 199 2 q 183 2 168 8 q 152 15 129 30 l 109 44 q 57 90 39 146 q 28 181 28 209 q 28 262 74 327 q 95 357 127 387 q 159 417 207 449 q 255 481 283 494 q 311 507 338 507 q 355 507 372 504 q 389 501 409 497 q 429 493 448 488 q 466 482 475 480 z"},"d":{"x_min":0,"x_max":587,"ha":587,"o":"m 25 579 l 155 677 l 172 665 q 155 650 155 630 q 155 602 194 575 l 212 564 l 239 550 l 249 544 q 297 521 362 497 l 379 490 l 402 482 q 464 458 494 436 q 566 379 566 304 q 566 260 539 207 q 527 183 505 157 q 480 127 436 88 q 420 73 403 60 q 386 46 372 37 q 327 7 299 -4 q 271 -15 241 -15 q 200 -15 164 4 q 128 22 98 61 q 53 121 53 183 q 53 286 163 354 l 197 371 l 209 363 q 182 319 182 267 q 182 250 186 230 q 190 211 194 200 q 199 189 209 172 q 243 118 289 99 q 313 89 338 89 q 373 89 398 110 q 423 131 430 166 q 433 181 433 198 q 433 205 433 213 q 431 223 431 228 q 423 286 391 322 q 359 359 283 393 q 271 399 259 404 q 256 405 234 413 q 100 461 66 474 q 33 488 22 497 q 0 515 0 534 q 0 551 16 570 z"},"1":{"x_min":0,"x_max":543,"ha":543,"o":"m 116 475 l 130 487 l 148 502 l 196 538 q 231 563 251 575 q 271 587 283 592 q 295 598 306 598 q 322 598 332 586 q 343 573 343 551 l 345 466 l 347 305 l 347 97 l 347 74 l 208 -15 l 208 34 l 208 258 q 208 317 206 348 q 204 378 201 396 q 187 464 154 464 q 143 464 133 457 z"},"5":{"x_min":0,"x_max":543,"ha":543,"o":"m 76 331 q 103 373 127 410 q 159 460 210 546 l 225 572 l 240 598 q 264 593 293 588 q 322 583 343 583 q 361 583 370 583 q 425 583 447 584 q 469 586 497 592 l 444 501 l 433 485 q 414 462 397 454 q 380 445 351 445 q 340 445 324 446 q 307 448 274 452 q 241 456 200 471 l 193 431 l 230 413 q 276 388 306 366 q 336 343 353 324 q 398 270 398 216 q 398 201 395 186 q 389 160 374 137 q 359 114 323 78 q 281 34 203 -14 l 168 -36 l 133 -57 l 112 -27 q 128 -18 133 -15 q 153 -2 179 18 q 258 79 258 148 q 258 220 169 276 l 155 285 l 122 304 z"}}}
